<svg width="34" height="34" viewBox="0 0 34 34" fill="none" xmlns="http://www.w3.org/2000/svg">
<path fill-rule="evenodd" clip-rule="evenodd" d="M33.1571 23.8921C32.3864 22.3401 31.3709 20.9222 30.1495 19.6931C29.741 19.2314 29.3132 18.7871 28.8674 18.3614L28.8136 18.309C28.6481 18.1482 28.4846 17.9853 28.3234 17.8202C29.9931 15.4985 31.4218 13.0126 32.5876 10.4012L32.6343 10.2963L32.6669 10.1858C32.8213 9.67158 32.997 8.69408 32.3737 7.81008C31.7277 6.89775 30.6949 6.73341 30.0022 6.73341H26.8189C26.1524 6.70304 25.4933 6.88429 24.9361 7.25122C24.3788 7.61815 23.9519 8.15195 23.7164 8.77625C23.0313 10.4077 22.1736 11.9612 21.1579 13.4102V9.68008C21.1579 9.19841 21.1126 8.39091 20.5955 7.71091C19.9778 6.89491 19.0839 6.73341 18.4634 6.73341H13.4116C12.7524 6.71824 12.1126 6.95719 11.6247 7.40077C11.1368 7.84435 10.8382 8.45857 10.7907 9.11625L10.7865 9.18V9.24375C10.7865 9.93083 11.0585 10.438 11.2767 10.7567C11.3744 10.8998 11.4778 11.0302 11.5444 11.1123L11.5586 11.1307C11.6294 11.2186 11.6762 11.2767 11.7229 11.3418C11.8476 11.509 12.0247 11.7697 12.0757 12.4412V14.5279C11.0616 12.8298 10.2301 11.0291 9.59507 9.15591L9.58374 9.12475L9.57241 9.095C9.39957 8.64308 9.12332 7.98575 8.56941 7.48425C7.92341 6.89633 7.15841 6.73341 6.46282 6.73341H3.23282C2.52874 6.73341 1.68016 6.89775 1.04691 7.565C0.42499 8.22233 0.354156 9.01 0.354156 9.4265V9.61633L0.393823 9.8005C1.28817 13.9524 3.13116 17.8411 5.77857 21.1622C6.98894 23.0708 8.63215 24.6674 10.5749 25.8223C12.5177 26.9771 14.7053 27.6578 16.9603 27.8092L17.0184 27.8134H17.0779C18.1064 27.8134 19.1788 27.7242 19.9849 27.1872C21.0715 26.4619 21.1579 25.3498 21.1579 24.7945V23.1823C21.437 23.409 21.7827 23.7122 22.2062 24.1202C22.7191 24.633 23.1271 25.0778 23.477 25.466L23.664 25.6728C23.936 25.976 24.2037 26.2749 24.4474 26.52C24.7534 26.8274 25.1317 27.166 25.6048 27.4167C26.1191 27.6873 26.6588 27.8106 27.2312 27.8106H30.4626C31.144 27.8106 32.1201 27.6491 32.8072 26.8529C33.5552 25.9859 33.4985 24.922 33.2633 24.1584L33.2208 24.021L33.1571 23.8921ZM25.0537 24.0422C24.6147 23.5514 24.1626 23.0724 23.698 22.6057L23.6937 22.6015C21.7713 20.7485 20.8746 20.4269 20.2399 20.4269C19.9013 20.4269 19.5287 20.4637 19.2865 20.7669C19.1774 20.9115 19.1059 21.0809 19.0782 21.2599C19.0441 21.4678 19.0289 21.6783 19.0329 21.8889V24.7945C19.0329 25.1557 18.9734 25.3073 18.8062 25.4178C18.5838 25.5666 18.1092 25.687 17.0907 25.687C15.1558 25.5553 13.2798 24.9663 11.6169 23.9684C9.95402 22.9705 8.55173 21.5921 7.52532 19.9467L7.51399 19.9282L7.49982 19.9112C5.03357 16.8416 3.31477 13.2405 2.47916 9.3925C2.48482 9.20833 2.52449 9.09641 2.58966 9.02841C2.65624 8.95758 2.81916 8.85841 3.23282 8.85841H6.46282C6.82124 8.85841 7.00824 8.93775 7.14282 9.05816C7.29299 9.197 7.42616 9.43075 7.58482 9.84725C8.37816 12.1791 9.44916 14.3607 10.4649 15.963C10.9721 16.7648 11.4707 17.4321 11.9212 17.9038C12.1465 18.139 12.3661 18.3345 12.5772 18.4733C12.7797 18.6065 13.0107 18.7127 13.2487 18.7127C13.3733 18.7127 13.5192 18.6986 13.6595 18.6377C13.811 18.5708 13.9356 18.455 14.0137 18.309C14.1596 18.0427 14.2007 17.6502 14.2007 17.136V12.3576C14.1256 11.1987 13.7757 10.5457 13.4357 10.0824C13.3668 9.98975 13.2959 9.89859 13.2232 9.809L13.2047 9.78633C13.1443 9.71295 13.0867 9.63734 13.0319 9.55966C12.9622 9.47303 12.9202 9.36737 12.9115 9.2565C12.9226 9.14392 12.9763 9.03985 13.0616 8.96559C13.147 8.89132 13.2575 8.85247 13.3705 8.857H18.4634C18.7552 8.857 18.853 8.92783 18.9026 8.99441C18.9734 9.0865 19.0329 9.27775 19.0329 9.68008V16.0947C19.0329 16.8569 19.3842 17.3726 19.8942 17.3726C20.4807 17.3726 20.9043 17.017 21.6438 16.2775L21.6566 16.2633L21.6679 16.2506C23.3268 14.228 24.6821 11.9745 25.6912 9.56108L25.6969 9.54408C25.7727 9.33085 25.9162 9.14828 26.1055 9.02423C26.2948 8.90017 26.5195 8.84144 26.7452 8.857H30.0036C30.4456 8.857 30.5901 8.97033 30.6382 9.03691C30.6878 9.10775 30.7232 9.25933 30.6382 9.55683C29.4746 12.1583 28.036 14.6279 26.3472 16.9235L26.3358 16.9405C26.1729 17.1912 25.993 17.4689 25.9675 17.7862C25.9392 18.1291 26.0865 18.4393 26.3457 18.7737C26.5342 19.0513 26.9237 19.4324 27.319 19.8192L27.3558 19.856C27.7695 20.2612 28.2186 20.7003 28.5784 21.1253L28.5883 21.1352L28.5982 21.1466C29.6712 22.2168 30.5635 23.4541 31.2403 24.8101C31.348 25.1784 31.2828 25.3682 31.1978 25.466C31.1001 25.5793 30.8805 25.6856 30.464 25.6856H27.2312C27.0108 25.6909 26.7928 25.6397 26.5979 25.5368C26.3591 25.3979 26.1423 25.2241 25.9547 25.0212C25.7522 24.8186 25.5326 24.5735 25.2634 24.2746L25.0552 24.0422H25.0537Z" fill="#8B8B8B"/>
</svg>
