<svg width="122" height="48" viewBox="0 0 122 48" fill="none" xmlns="http://www.w3.org/2000/svg">
<path d="M24 48C37.2548 48 48 37.2548 48 24C48 10.7452 37.2548 0 24 0C10.7452 0 0 10.7452 0 24C0 37.2548 10.7452 48 24 48Z" fill="url(#paint0_linear_129_303)"/>
<mask id="mask0_129_303" style="mask-type:luminance" maskUnits="userSpaceOnUse" x="19" y="9" width="10" height="15">
<path d="M29 9H19V24H29V9Z" fill="white"/>
</mask>
<g mask="url(#mask0_129_303)">
<path d="M24 9L28.3301 16.5H19.6699L24 9Z" fill="#D9D9D9"/>
<path d="M24 24L19.6699 16.5H28.3301L24 24Z" fill="#D9D9D9"/>
</g>
<mask id="mask1_129_303" style="mask-type:luminance" maskUnits="userSpaceOnUse" x="6" y="20" width="15" height="10">
<path d="M21 30V20H6V30H21Z" fill="white"/>
</mask>
<g mask="url(#mask1_129_303)">
<path d="M21 25L13.5 29.3301V20.6699L21 25Z" fill="#D9D9D9"/>
<path d="M6 25L13.5 20.6699V29.3301L6 25Z" fill="#D9D9D9"/>
</g>
<mask id="mask2_129_303" style="mask-type:luminance" maskUnits="userSpaceOnUse" x="19" y="27" width="10" height="15">
<path d="M29 27H19V42H29V27Z" fill="white"/>
</mask>
<g mask="url(#mask2_129_303)">
<path d="M24 27L28.3301 34.5H19.6699L24 27Z" fill="#D9D9D9"/>
<path d="M24 42L19.6699 34.5H28.3301L24 42Z" fill="#D9D9D9"/>
</g>
<mask id="mask3_129_303" style="mask-type:luminance" maskUnits="userSpaceOnUse" x="27" y="20" width="15" height="10">
<path d="M42 30V20H27V30H42Z" fill="white"/>
</mask>
<g mask="url(#mask3_129_303)">
<path d="M42 25L34.5 29.3301V20.6699L42 25Z" fill="#D9D9D9"/>
<path d="M27 25L34.5 20.6699V29.3301L27 25Z" fill="#D9D9D9"/>
</g>
<path d="M66.032 27.784C66.0533 27.8373 66.064 27.9173 66.064 28.024C66.064 28.12 66.064 28.2 66.064 28.264C66.064 28.3493 66.048 28.4293 66.016 28.504C65.984 28.5787 65.9413 28.648 65.888 28.712C65.792 28.84 65.6533 28.936 65.472 29C65.216 29.0853 64.976 29.128 64.752 29.128C64.6347 29.1387 64.512 29.144 64.384 29.144C64.256 29.144 64.128 29.1547 64 29.176H63.936C63.1147 29.1867 62.2667 29.1867 61.392 29.176C61.1787 29.1653 60.9387 29.1653 60.672 29.176C60.4053 29.1973 60.144 29.192 59.888 29.16C59.632 29.1387 59.3973 29.08 59.184 28.984C58.9813 28.8773 58.8373 28.712 58.752 28.488C58.7307 28.4347 58.7147 28.3867 58.704 28.344C58.6933 28.2907 58.688 28.2373 58.688 28.184C58.6453 27.8213 58.6293 27.464 58.64 27.112C58.6507 26.76 58.656 26.4133 58.656 26.072L58.688 23.752V21.608C58.688 21.224 58.688 20.8827 58.688 20.584C58.6987 20.2853 58.7093 19.9547 58.72 19.592V19.512C58.7307 19.4053 58.736 19.2987 58.736 19.192C58.7467 19.0853 58.752 18.9787 58.752 18.872C58.7733 18.6267 58.832 18.4187 58.928 18.248C58.992 18.088 59.104 17.96 59.264 17.864C59.4027 17.768 59.568 17.72 59.76 17.72C59.8347 17.72 59.904 17.7253 59.968 17.736C60.0427 17.736 60.112 17.7413 60.176 17.752C60.24 17.7627 60.2987 17.784 60.352 17.816C60.416 17.848 60.48 17.8907 60.544 17.944C60.608 18.0187 60.6667 18.1093 60.72 18.216C60.7627 18.3333 60.7893 18.4507 60.8 18.568C60.8107 18.6427 60.8213 18.712 60.832 18.776C60.8427 18.84 60.848 18.904 60.848 18.968C60.8267 19.032 60.816 19.096 60.816 19.16C60.816 19.224 60.816 19.2827 60.816 19.336V19.624L60.752 27.16L63.92 27.192H64.672C64.736 27.192 64.8053 27.1973 64.88 27.208C64.9547 27.208 65.0293 27.2133 65.104 27.224C65.1893 27.2347 65.264 27.2453 65.328 27.256C65.392 27.2667 65.456 27.2827 65.52 27.304C65.6373 27.336 65.7333 27.3893 65.808 27.464C65.9253 27.5707 66 27.6773 66.032 27.784ZM68.3714 22.264C68.6914 22.104 69.0274 21.992 69.3794 21.928C69.7314 21.8533 70.078 21.8373 70.4194 21.88C70.7714 21.912 71.1074 22.0027 71.4274 22.152C71.7474 22.2907 72.046 22.4933 72.3234 22.76C72.6007 23.0373 72.814 23.3413 72.9634 23.672C73.1127 24.0027 73.2194 24.3707 73.2834 24.776C73.326 25.0533 73.3954 25.3093 73.4914 25.544C73.5874 25.7787 73.6887 26.0133 73.7954 26.248C73.9127 26.4827 74.0194 26.7173 74.1154 26.952C74.222 27.1867 74.3074 27.432 74.3714 27.688C74.4247 27.9333 74.4034 28.1733 74.3074 28.408C74.222 28.632 74.0407 28.7707 73.7634 28.824C73.6034 28.856 73.4487 28.8453 73.2994 28.792C73.1607 28.728 73.0327 28.6427 72.9154 28.536C72.798 28.4187 72.6914 28.296 72.5954 28.168C72.51 28.0293 72.43 27.9013 72.3554 27.784C72.11 28.104 71.8434 28.3547 71.5554 28.536C71.2674 28.7067 70.9207 28.8187 70.5154 28.872C70.174 28.9147 69.8487 28.9253 69.5394 28.904C69.23 28.8827 68.8994 28.824 68.5474 28.728C68.0887 28.6107 67.71 28.408 67.4114 28.12C67.1234 27.8213 66.8994 27.48 66.7394 27.096C66.59 26.7013 66.51 26.28 66.4994 25.832C66.4887 25.384 66.542 24.9413 66.6594 24.504C66.8087 23.928 67.0327 23.4587 67.3314 23.096C67.63 22.7333 67.9767 22.456 68.3714 22.264ZM68.7714 24.136C68.622 24.2853 68.5047 24.4613 68.4194 24.664C68.334 24.8667 68.2807 25.08 68.2594 25.304C68.2487 25.528 68.27 25.752 68.3234 25.976C68.3767 26.2 68.462 26.3973 68.5794 26.568C68.686 26.7173 68.8674 26.8453 69.1234 26.952C69.3794 27.048 69.646 27.1067 69.9234 27.128C70.2434 27.1493 70.5207 27.064 70.7554 26.872C71.0007 26.68 71.182 26.44 71.2994 26.152C71.4274 25.8533 71.486 25.5387 71.4754 25.208C71.4647 24.8667 71.374 24.5573 71.2034 24.28C71.0754 24.0773 70.9047 23.928 70.6914 23.832C70.4887 23.736 70.27 23.688 70.0354 23.688C69.8007 23.6773 69.566 23.7147 69.3314 23.8C69.1074 23.8747 68.9207 23.9867 68.7714 24.136ZM81.8694 21.992C81.912 22.12 81.9227 22.264 81.9014 22.424C81.88 22.584 81.8427 22.7493 81.7894 22.92C81.736 23.08 81.672 23.24 81.5974 23.4C81.5334 23.5493 81.4747 23.6827 81.4214 23.8C81.144 24.3653 80.8827 24.92 80.6374 25.464C80.392 26.008 80.104 26.6 79.7734 27.24C79.7094 27.368 79.6347 27.5227 79.5494 27.704C79.4747 27.8747 79.3894 28.0453 79.2934 28.216C79.1974 28.376 79.0907 28.5253 78.9734 28.664C78.8667 28.8027 78.7494 28.904 78.6214 28.968C78.5147 29.032 78.408 29.0587 78.3014 29.048C78.216 29.0693 78.12 29.0427 78.0134 28.968C77.8854 28.904 77.7627 28.8027 77.6454 28.664C77.5387 28.5253 77.4374 28.376 77.3414 28.216C77.2454 28.0453 77.1547 27.8747 77.0694 27.704C76.9947 27.5227 76.9254 27.368 76.8614 27.24C76.7334 26.9947 76.6107 26.7653 76.4934 26.552C76.3867 26.3387 76.2694 26.1093 76.1414 25.864C76.024 25.608 75.8907 25.32 75.7414 25C75.592 24.6693 75.416 24.2693 75.2134 23.8C75.16 23.672 75.1014 23.5387 75.0374 23.4C74.9734 23.2613 74.9147 23.112 74.8614 22.952C74.8187 22.792 74.7867 22.632 74.7654 22.472C74.7547 22.3013 74.7654 22.1307 74.7974 21.96C74.8294 21.8 74.9094 21.672 75.0374 21.576C75.1654 21.48 75.3094 21.416 75.4694 21.384C75.6294 21.352 75.7894 21.3573 75.9494 21.4C76.1094 21.432 76.2374 21.5013 76.3334 21.608C76.4294 21.704 76.52 21.832 76.6054 21.992C76.6907 22.152 76.7707 22.3227 76.8454 22.504C76.9307 22.6747 77.0054 22.8507 77.0694 23.032C77.144 23.2027 77.2134 23.352 77.2774 23.48C77.4267 23.7893 77.592 24.1253 77.7734 24.488C77.9654 24.8507 78.136 25.1867 78.2854 25.496C78.392 25.2507 78.488 25.048 78.5734 24.888C78.6587 24.7173 78.7387 24.552 78.8134 24.392C78.8987 24.232 78.984 24.056 79.0694 23.864C79.1654 23.672 79.2827 23.4267 79.4214 23.128C79.5494 22.8507 79.6774 22.5787 79.8054 22.312C79.944 22.0453 80.1094 21.8107 80.3014 21.608C80.3974 21.5013 80.52 21.432 80.6694 21.4C80.8187 21.3573 80.9734 21.352 81.1334 21.384C81.2934 21.416 81.4374 21.4853 81.5654 21.592C81.704 21.688 81.8054 21.8213 81.8694 21.992ZM88.2541 26.808C88.3821 26.776 88.5101 26.7547 88.6381 26.744C88.7768 26.7333 88.8995 26.7493 89.0061 26.792C89.1235 26.8347 89.2195 26.9093 89.2941 27.016C89.3688 27.112 89.4061 27.2507 89.4061 27.432C89.4061 27.56 89.3741 27.6827 89.3101 27.8C89.2461 27.9173 89.1661 28.024 89.0701 28.12C88.9741 28.216 88.8675 28.3013 88.7501 28.376C88.6328 28.44 88.5208 28.4933 88.4141 28.536C88.1048 28.6747 87.7475 28.7813 87.3421 28.856C86.9475 28.9307 86.5368 28.9573 86.1101 28.936C85.5341 28.9147 84.9795 28.8027 84.4461 28.6C83.9235 28.3867 83.5128 28.04 83.2141 27.56C82.9368 27.0907 82.7715 26.568 82.7181 25.992C82.6648 25.416 82.6915 24.872 82.7981 24.36C82.9155 23.7413 83.1128 23.24 83.3901 22.856C83.6781 22.4613 84.0195 22.1467 84.4141 21.912C84.8941 21.6347 85.4328 21.4907 86.0301 21.48C86.6275 21.4693 87.1981 21.5867 87.7421 21.832C88.1048 21.992 88.4301 22.2107 88.7181 22.488C89.0061 22.7547 89.2248 23.08 89.3741 23.464C89.4168 23.56 89.4488 23.6773 89.4701 23.816C89.5021 23.9547 89.5235 24.104 89.5341 24.264C89.5448 24.4133 89.5448 24.5627 89.5341 24.712C89.5235 24.8613 89.4968 24.9947 89.4541 25.112C89.3901 25.304 89.3101 25.4533 89.2141 25.56C89.1181 25.6667 88.9955 25.7467 88.8461 25.8C88.6968 25.8533 88.5155 25.8907 88.3021 25.912C88.0995 25.9227 87.8541 25.9333 87.5661 25.944C87.3101 25.9547 87.0701 25.96 86.8461 25.96C86.6221 25.96 86.3928 25.96 86.1581 25.96C85.9235 25.9493 85.6781 25.944 85.4221 25.944C85.1768 25.9333 84.8995 25.9227 84.5901 25.912C84.5581 26.1253 84.5848 26.312 84.6701 26.472C84.7661 26.6213 84.8941 26.7493 85.0541 26.856C85.2141 26.952 85.3955 27.0267 85.5981 27.08C85.8008 27.1333 85.9981 27.1653 86.1901 27.176C86.5528 27.1973 86.8995 27.1707 87.2301 27.096C87.5608 27.0107 87.9021 26.9147 88.2541 26.808ZM87.5661 23.704C87.3635 23.4693 87.1501 23.2987 86.9261 23.192C86.7555 23.1173 86.5741 23.0853 86.3821 23.096C86.2008 23.096 86.0248 23.1227 85.8541 23.176C85.5448 23.2507 85.2835 23.4107 85.0701 23.656C85.0488 23.6773 85.0115 23.7307 84.9581 23.816C84.9048 23.8907 84.8515 23.9707 84.7981 24.056C84.7555 24.1413 84.7235 24.2213 84.7021 24.296C84.6808 24.3707 84.6915 24.408 84.7341 24.408H87.8701C87.8595 24.2587 87.8328 24.136 87.7901 24.04C87.7475 23.9333 87.6728 23.8213 87.5661 23.704ZM90.8435 23.288C90.8435 23.0427 90.8382 22.7813 90.8275 22.504C90.8275 22.2267 90.8755 21.976 90.9715 21.752C91.0568 21.5493 91.1955 21.4053 91.3875 21.32C91.5902 21.224 91.7875 21.2027 91.9795 21.256C92.1715 21.288 92.3208 21.3467 92.4275 21.432C92.5342 21.5173 92.6088 21.6187 92.6515 21.736C92.7048 21.8427 92.7368 21.9707 92.7475 22.12C92.7582 22.2587 92.7688 22.3973 92.7795 22.536C92.8862 22.344 93.0195 22.1893 93.1795 22.072C93.3395 21.9547 93.5048 21.8587 93.6755 21.784C93.8462 21.7093 94.0062 21.656 94.1555 21.624C94.3155 21.592 94.4382 21.576 94.5235 21.576C94.9288 21.576 95.3288 21.6667 95.7235 21.848C96.1288 22.0187 96.4648 22.264 96.7315 22.584C96.8808 22.776 96.9928 22.9787 97.0675 23.192C97.1528 23.3947 97.2115 23.608 97.2435 23.832C97.2862 24.056 97.3128 24.2853 97.3235 24.52C97.3342 24.744 97.3448 24.9733 97.3555 25.208C97.4088 25.8907 97.4088 26.568 97.3555 27.24C97.3448 27.3787 97.3395 27.5387 97.3395 27.72C97.3395 27.9013 97.3235 28.0827 97.2915 28.264C97.2702 28.4347 97.2222 28.5893 97.1475 28.728C97.0835 28.856 96.9715 28.936 96.8115 28.968C96.5875 29.0213 96.4008 29.032 96.2515 29C96.1128 28.9787 96.0008 28.9307 95.9155 28.856C95.8302 28.7813 95.7662 28.6853 95.7235 28.568C95.6808 28.4507 95.6435 28.3173 95.6115 28.168C95.5902 28.0507 95.5688 27.9173 95.5475 27.768C95.5368 27.608 95.5262 27.448 95.5155 27.288C95.5155 27.128 95.5102 26.9733 95.4995 26.824C95.4995 26.664 95.4995 26.52 95.4995 26.392C95.4995 26.1893 95.4942 25.9653 95.4835 25.72C95.4728 25.4747 95.4728 25.2453 95.4835 25.032C95.4835 24.5307 95.3502 24.152 95.0835 23.896C94.8275 23.6293 94.4755 23.5173 94.0275 23.56C93.6862 23.6027 93.3875 23.7413 93.1315 23.976C92.8755 24.2 92.7528 24.4933 92.7635 24.856C92.7635 24.9947 92.7635 25.1227 92.7635 25.24C92.7635 25.3573 92.7582 25.4747 92.7475 25.592C92.7475 25.7093 92.7475 25.8373 92.7475 25.976C92.7475 26.1147 92.7475 26.2693 92.7475 26.44C92.7475 26.792 92.7475 27.1653 92.7475 27.56C92.7475 27.944 92.6995 28.2587 92.6035 28.504C92.5182 28.76 92.3742 28.936 92.1715 29.032C91.9688 29.128 91.7288 29.1013 91.4515 28.952C91.3342 28.888 91.2382 28.8027 91.1635 28.696C91.0995 28.5787 91.0462 28.456 91.0035 28.328C90.9715 28.2 90.9502 28.072 90.9395 27.944C90.9288 27.8053 90.9182 27.6773 90.9075 27.56C90.8755 27.208 90.8542 26.8827 90.8435 26.584C90.8435 26.2747 90.8435 25.944 90.8435 25.592V23.288ZM103.679 17.816C103.882 17.7627 104.058 17.7573 104.207 17.8C104.367 17.832 104.5 17.9013 104.607 18.008C104.724 18.1147 104.81 18.248 104.863 18.408C104.927 18.568 104.959 18.744 104.959 18.936C104.97 19.4693 104.97 19.8853 104.959 20.184C104.959 20.4827 104.959 20.744 104.959 20.968V25.88C104.959 26.456 104.959 26.936 104.959 27.32C104.959 27.704 104.938 28.0187 104.895 28.264C104.863 28.4987 104.799 28.6747 104.703 28.792C104.618 28.9093 104.484 28.9893 104.303 29.032C104.122 29.0853 103.882 29.112 103.583 29.112C103.295 29.112 102.932 29.112 102.495 29.112C101.343 29.112 100.431 28.84 99.7589 28.296C99.0975 27.752 98.7455 26.888 98.7029 25.704C98.6815 25.192 98.7455 24.7227 98.8949 24.296C99.0442 23.8693 99.2629 23.5067 99.5509 23.208C99.8495 22.8987 100.212 22.664 100.639 22.504C101.076 22.3333 101.572 22.2533 102.127 22.264H103.007V19.4C103.007 19.2293 103.007 19.064 103.007 18.904C103.007 18.7333 103.023 18.5787 103.055 18.44C103.087 18.2907 103.151 18.1627 103.247 18.056C103.343 17.9493 103.487 17.8693 103.679 17.816ZM100.895 26.696C101.119 27.0053 101.524 27.176 102.111 27.208C102.228 27.2187 102.34 27.224 102.447 27.224C102.554 27.2133 102.65 27.1973 102.735 27.176C102.831 27.1653 102.922 27.1493 103.007 27.128V24.168C102.634 24.104 102.292 24.0667 101.983 24.056C101.684 24.0347 101.386 24.1413 101.087 24.376C100.927 24.504 100.804 24.6693 100.719 24.872C100.634 25.064 100.586 25.272 100.575 25.496C100.564 25.7093 100.586 25.9227 100.639 26.136C100.692 26.3493 100.778 26.536 100.895 26.696ZM111.785 26.808C111.913 26.776 112.041 26.7547 112.169 26.744C112.308 26.7333 112.431 26.7493 112.537 26.792C112.655 26.8347 112.751 26.9093 112.825 27.016C112.9 27.112 112.937 27.2507 112.937 27.432C112.937 27.56 112.905 27.6827 112.841 27.8C112.777 27.9173 112.697 28.024 112.601 28.12C112.505 28.216 112.399 28.3013 112.281 28.376C112.164 28.44 112.052 28.4933 111.945 28.536C111.636 28.6747 111.279 28.7813 110.873 28.856C110.479 28.9307 110.068 28.9573 109.641 28.936C109.065 28.9147 108.511 28.8027 107.977 28.6C107.455 28.3867 107.044 28.04 106.745 27.56C106.468 27.0907 106.303 26.568 106.249 25.992C106.196 25.416 106.223 24.872 106.329 24.36C106.447 23.7413 106.644 23.24 106.921 22.856C107.209 22.4613 107.551 22.1467 107.945 21.912C108.425 21.6347 108.964 21.4907 109.561 21.48C110.159 21.4693 110.729 21.5867 111.273 21.832C111.636 21.992 111.961 22.2107 112.249 22.488C112.537 22.7547 112.756 23.08 112.905 23.464C112.948 23.56 112.98 23.6773 113.001 23.816C113.033 23.9547 113.055 24.104 113.065 24.264C113.076 24.4133 113.076 24.5627 113.065 24.712C113.055 24.8613 113.028 24.9947 112.985 25.112C112.921 25.304 112.841 25.4533 112.745 25.56C112.649 25.6667 112.527 25.7467 112.377 25.8C112.228 25.8533 112.047 25.8907 111.833 25.912C111.631 25.9227 111.385 25.9333 111.097 25.944C110.841 25.9547 110.601 25.96 110.377 25.96C110.153 25.96 109.924 25.96 109.689 25.96C109.455 25.9493 109.209 25.944 108.953 25.944C108.708 25.9333 108.431 25.9227 108.121 25.912C108.089 26.1253 108.116 26.312 108.201 26.472C108.297 26.6213 108.425 26.7493 108.585 26.856C108.745 26.952 108.927 27.0267 109.129 27.08C109.332 27.1333 109.529 27.1653 109.721 27.176C110.084 27.1973 110.431 27.1707 110.761 27.096C111.092 27.0107 111.433 26.9147 111.785 26.808ZM111.097 23.704C110.895 23.4693 110.681 23.2987 110.457 23.192C110.287 23.1173 110.105 23.0853 109.913 23.096C109.732 23.096 109.556 23.1227 109.385 23.176C109.076 23.2507 108.815 23.4107 108.601 23.656C108.58 23.6773 108.543 23.7307 108.489 23.816C108.436 23.8907 108.383 23.9707 108.329 24.056C108.287 24.1413 108.255 24.2213 108.233 24.296C108.212 24.3707 108.223 24.408 108.265 24.408H111.401C111.391 24.2587 111.364 24.136 111.321 24.04C111.279 23.9333 111.204 23.8213 111.097 23.704ZM114.375 23.336C114.375 23.208 114.375 23.064 114.375 22.904C114.375 22.7333 114.38 22.5627 114.391 22.392C114.401 22.2107 114.417 22.04 114.439 21.88C114.471 21.7093 114.513 21.56 114.567 21.432C114.652 21.24 114.785 21.112 114.967 21.048C115.148 20.9733 115.345 20.9413 115.559 20.952C115.783 20.952 115.959 20.9893 116.087 21.064C116.215 21.1387 116.311 21.24 116.375 21.368C116.439 21.4853 116.476 21.624 116.487 21.784C116.508 21.9333 116.519 22.0933 116.519 22.264C116.615 22.0933 116.743 21.9547 116.903 21.848C117.073 21.7413 117.244 21.656 117.415 21.592C117.585 21.528 117.74 21.4853 117.879 21.464C118.017 21.432 118.097 21.416 118.119 21.416C118.385 21.3947 118.625 21.3893 118.839 21.4C119.063 21.4107 119.308 21.4587 119.575 21.544C119.745 21.608 119.921 21.6987 120.103 21.816C120.284 21.9227 120.444 22.0507 120.583 22.2C120.721 22.3493 120.812 22.5147 120.855 22.696C120.908 22.8667 120.887 23.048 120.791 23.24C120.641 23.5067 120.476 23.64 120.295 23.64C120.113 23.6293 119.916 23.5973 119.703 23.544C119.585 23.5227 119.447 23.4747 119.287 23.4C119.127 23.3253 118.988 23.2773 118.871 23.256C118.508 23.2027 118.188 23.2293 117.911 23.336C117.633 23.4427 117.393 23.5707 117.191 23.72C116.956 23.9013 116.753 24.1093 116.583 24.344V26.648C116.583 26.936 116.577 27.2347 116.567 27.544C116.567 27.8533 116.524 28.136 116.439 28.392C116.364 28.6373 116.231 28.84 116.039 29C115.857 29.1493 115.591 29.2133 115.239 29.192C115.047 29.1813 114.876 29.0907 114.727 28.92C114.577 28.7387 114.487 28.5627 114.455 28.392C114.433 28.232 114.417 28.04 114.407 27.816C114.396 27.592 114.385 27.3573 114.375 27.112C114.375 26.8667 114.375 26.6213 114.375 26.376C114.375 26.12 114.375 25.8853 114.375 25.672V23.336Z" fill="#18181B"/>
<defs>
<linearGradient id="paint0_linear_129_303" x1="48" y1="24" x2="0" y2="24" gradientUnits="userSpaceOnUse">
<stop stop-color="#44003B"/>
<stop offset="1" stop-color="#A200B0"/>
</linearGradient>
</defs>
</svg>
