<svg width="34" height="34" viewBox="0 0 34 34" fill="none" xmlns="http://www.w3.org/2000/svg">
<path d="M21.7459 7.8625C20.6694 7.86231 19.6358 8.28464 18.8675 9.03863C18.0992 9.79262 17.6576 10.818 17.6375 11.8943L17.5979 14.1256C17.5957 14.2455 17.5683 14.3636 17.5172 14.4722C17.4662 14.5807 17.3928 14.6772 17.3018 14.7554C17.2108 14.8335 17.1043 14.8915 16.9893 14.9256C16.8743 14.9596 16.7534 14.9689 16.6345 14.9529L14.4217 14.6512C11.5133 14.2545 8.72527 12.9157 6.04919 10.6873C5.20344 15.3765 6.85669 18.6249 10.8418 21.131L13.3167 22.6865C13.4341 22.7603 13.5316 22.8618 13.6008 22.982C13.67 23.1021 13.7087 23.2374 13.7136 23.376C13.7185 23.5146 13.6894 23.6523 13.6289 23.7771C13.5683 23.9018 13.4782 24.0099 13.3663 24.0918L11.1109 25.7408C12.4525 25.8258 13.7261 25.7663 14.7829 25.5567C21.4668 24.2222 25.9109 19.193 25.9109 10.897C25.9109 10.2198 24.4758 7.8625 21.7459 7.8625ZM14.8042 11.8433C14.8289 10.4777 15.2559 9.14978 16.0318 8.02573C16.8077 6.90168 17.8979 6.03149 19.166 5.5241C20.4341 5.01672 21.8236 4.8947 23.1607 5.17331C24.4978 5.45192 25.723 6.11879 26.6829 7.09042C27.6902 7.08333 28.5473 7.33833 30.4626 6.17525C29.9894 8.49858 29.7543 9.50867 28.7442 10.8956C28.7442 21.7203 22.0901 26.9861 15.3369 28.3333C10.7086 29.257 3.97519 27.7397 2.04852 25.7238C3.03027 25.6488 7.02527 25.2195 9.33444 23.528C7.37944 22.2388 -0.395227 17.663 4.71469 5.3635C7.11311 8.16425 9.54552 10.0697 12.0105 11.0826C13.6496 11.7555 14.0534 11.7413 14.8056 11.8447L14.8042 11.8433Z" fill="#8B8B8B"/>
</svg>
